Coordinates
version=1
nRows=21
nColumns=12
inDegrees=yes

Units are S.I. units (second, meters, Newtons, ...)
Angles are in degrees

endheader
time	SC_y	SC_z	SC_x	AC_y	AC_z	AC_x	GH_y	GH_z	GH_yy	EL_x	PS_y
       0.0               -45.1           12.6          27.95           54.9          1.506         -1.942         -119.8          23.08         -112.9          59.96          71.24
   0.02105               -45.1           12.6          27.95           54.9          1.506         -1.939         -119.8          23.08         -112.9          59.97          71.24
    0.0421              -45.09           12.6          27.95          54.89          1.506         -1.936         -119.8          23.09         -112.9          59.98          71.24
   0.06315              -45.09           12.6          27.94          54.89          1.505         -1.933         -119.8           23.1         -112.9          59.99          71.24
    0.0842              -45.09           12.6          27.94          54.89          1.505         -1.929         -119.8          23.11         -112.9          60.01          71.25
    0.1053              -45.09          12.61          27.94          54.89          1.505         -1.926         -119.8          23.12         -112.9          60.02          71.25
    0.1263              -45.09          12.61          27.94          54.89          1.505         -1.922         -119.8          23.13         -112.9          60.03          71.25
    0.1474              -45.08          12.61          27.93          54.89          1.505         -1.918         -119.8          23.14         -112.8          60.05          71.25
    0.1684              -45.08          12.61          27.93          54.89          1.504         -1.913         -119.8          23.15         -112.8          60.06          71.25
    0.1895              -45.08          12.61          27.93          54.89          1.504         -1.908         -119.8          23.16         -112.8          60.08          71.25
    0.2105              -45.07          12.61          27.93          54.89          1.504         -1.903         -119.8          23.17         -112.8           60.1          71.25
    0.2316              -45.07          12.61          27.92          54.89          1.504         -1.898         -119.7          23.19         -112.8          60.12          71.25
    0.2526              -45.07          12.61          27.92          54.89          1.503         -1.892         -119.7           23.2         -112.8          60.14          71.25
    0.2737              -45.06          12.61          27.91          54.89          1.503         -1.885         -119.7          23.22         -112.8          60.16          71.26
    0.2947              -45.06          12.62          27.91          54.88          1.503         -1.878         -119.7          23.24         -112.7          60.19          71.26
    0.3158              -45.05          12.62          27.91          54.88          1.502         -1.871         -119.7          23.26         -112.7          60.21          71.26
    0.3368              -45.05          12.62           27.9          54.88          1.502         -1.862         -119.7          23.28         -112.7          60.24          71.26
    0.3579              -45.04          12.62          27.89          54.88          1.502         -1.853         -119.7           23.3         -112.7          60.27          71.26
    0.3789              -45.04          12.62          27.89          54.88          1.501         -1.843         -119.7          23.33         -112.7          60.31          71.27
       0.4              -45.03          12.63          27.88          54.88          1.501         -1.833         -119.6          23.35         -112.6          60.35          71.27
     0.421              -45.02          12.63          27.87          54.87            1.5         -1.821         -119.6          23.38         -112.6          60.39          71.27
